<mxfile host="65bd71144e">
    <diagram id="GuIsVpLJbAmoslVvp-Sv" name="Page-1">
        <mxGraphModel dx="495" dy="381" grid="1" gridSize="10" guides="1" tooltips="1" connect="1" arrows="1" fold="1" page="1" pageScale="1" pageWidth="850" pageHeight="1100" background="#ffffff" math="0" shadow="0">
            <root>
                <mxCell id="0"/>
                <mxCell id="1" parent="0"/>
                <mxCell id="4" value="&lt;font color=&quot;#080808&quot;&gt;Acessar o sistema&lt;br&gt;&lt;/font&gt;" style="whiteSpace=wrap;html=1;shape=mxgraph.basic.document;strokeColor=#000000;fillColor=#D9D9D9;" vertex="1" parent="1">
                    <mxGeometry x="40" y="40" width="100" height="80" as="geometry"/>
                </mxCell>
                <mxCell id="11" style="edgeStyle=none;html=1;strokeColor=#000000;fontSize=10;fontColor=#080808;" edge="1" parent="1" source="5" target="10">
                    <mxGeometry relative="1" as="geometry">
                        <Array as="points">
                            <mxPoint x="268" y="170"/>
                        </Array>
                    </mxGeometry>
                </mxCell>
                <mxCell id="5" value="" style="strokeWidth=2;html=1;shape=mxgraph.flowchart.start_1;whiteSpace=wrap;strokeColor=#000000;fontColor=#080808;fillColor=#000000;" vertex="1" parent="1">
                    <mxGeometry x="252.5" y="65" width="30" height="30" as="geometry"/>
                </mxCell>
                <mxCell id="9" value="" style="endArrow=none;dashed=1;html=1;strokeColor=#000000;fontColor=#080808;entryX=0;entryY=0.5;entryDx=0;entryDy=0;entryPerimeter=0;exitX=1;exitY=0.5;exitDx=0;exitDy=0;exitPerimeter=0;" edge="1" parent="1" source="4" target="5">
                    <mxGeometry width="50" height="50" relative="1" as="geometry">
                        <mxPoint x="160" y="110" as="sourcePoint"/>
                        <mxPoint x="210" y="60" as="targetPoint"/>
                    </mxGeometry>
                </mxCell>
                <mxCell id="14" style="edgeStyle=none;html=1;strokeColor=#000000;fontSize=10;fontColor=#080808;" edge="1" parent="1" source="10" target="12">
                    <mxGeometry relative="1" as="geometry"/>
                </mxCell>
                <mxCell id="10" value="&lt;font style=&quot;font-size: 10px;&quot;&gt;Acessar a página de login&lt;/font&gt;" style="rounded=1;whiteSpace=wrap;html=1;strokeColor=#000000;fontColor=#080808;fillColor=#D9D9D9;" vertex="1" parent="1">
                    <mxGeometry x="222.5" y="180" width="95" height="50" as="geometry"/>
                </mxCell>
                <mxCell id="25" style="edgeStyle=orthogonalEdgeStyle;html=1;strokeColor=#000000;fontSize=10;fontColor=#080808;" edge="1" parent="1" source="12">
                    <mxGeometry relative="1" as="geometry">
                        <mxPoint x="270" y="430" as="targetPoint"/>
                    </mxGeometry>
                </mxCell>
                <mxCell id="26" value="Sim" style="edgeLabel;align=center;verticalAlign=middle;resizable=0;points=[];fontSize=10;fontColor=#080808;labelBackgroundColor=none;" vertex="1" connectable="0" parent="25">
                    <mxGeometry x="-0.1733" relative="1" as="geometry">
                        <mxPoint as="offset"/>
                    </mxGeometry>
                </mxCell>
                <mxCell id="46" style="edgeStyle=orthogonalEdgeStyle;html=1;entryX=1;entryY=0.5;entryDx=0;entryDy=0;labelBackgroundColor=default;strokeColor=#000000;fontSize=10;fontColor=#080808;" edge="1" parent="1" source="12" target="45">
                    <mxGeometry relative="1" as="geometry"/>
                </mxCell>
                <mxCell id="48" value="Não" style="edgeLabel;align=center;verticalAlign=middle;resizable=0;points=[];fontSize=10;fontColor=#080808;labelBackgroundColor=none;" vertex="1" connectable="0" parent="46">
                    <mxGeometry x="-0.1032" relative="1" as="geometry">
                        <mxPoint as="offset"/>
                    </mxGeometry>
                </mxCell>
                <mxCell id="12" value="Cliente está cadastrado?" style="strokeWidth=2;html=1;shape=mxgraph.flowchart.decision;whiteSpace=wrap;strokeColor=#000000;fontSize=10;fontColor=#080808;fillColor=#D9D9D9;" vertex="1" parent="1">
                    <mxGeometry x="225" y="290" width="90" height="80" as="geometry"/>
                </mxCell>
                <mxCell id="42" style="edgeStyle=orthogonalEdgeStyle;html=1;entryX=0;entryY=0.5;entryDx=0;entryDy=0;entryPerimeter=0;strokeColor=#000000;fontSize=10;fontColor=#080808;" edge="1" parent="1" source="16" target="41">
                    <mxGeometry relative="1" as="geometry"/>
                </mxCell>
                <mxCell id="16" value="&lt;font style=&quot;font-size: 10px;&quot;&gt;Credenciais inválidas&lt;/font&gt;" style="rounded=1;whiteSpace=wrap;html=1;strokeColor=#000000;fontColor=#080808;fillColor=#D9D9D9;" vertex="1" parent="1">
                    <mxGeometry x="460" y="565" width="95" height="50" as="geometry"/>
                </mxCell>
                <mxCell id="32" style="edgeStyle=orthogonalEdgeStyle;html=1;entryX=0.5;entryY=0;entryDx=0;entryDy=0;entryPerimeter=0;strokeColor=#000000;fontSize=10;fontColor=#080808;" edge="1" parent="1" source="23" target="31">
                    <mxGeometry relative="1" as="geometry"/>
                </mxCell>
                <mxCell id="23" value="&lt;font style=&quot;font-size: 10px;&quot;&gt;Informar o e-mail e a senha&lt;/font&gt;" style="rounded=1;whiteSpace=wrap;html=1;strokeColor=#000000;fontColor=#080808;fillColor=#D9D9D9;" vertex="1" parent="1">
                    <mxGeometry x="220" y="430" width="95" height="50" as="geometry"/>
                </mxCell>
                <mxCell id="34" style="edgeStyle=orthogonalEdgeStyle;html=1;strokeColor=#000000;fontSize=10;fontColor=#080808;" edge="1" parent="1" source="31">
                    <mxGeometry relative="1" as="geometry">
                        <mxPoint x="267.4999999999999" y="700" as="targetPoint"/>
                    </mxGeometry>
                </mxCell>
                <mxCell id="35" value="Sim" style="edgeLabel;align=center;verticalAlign=middle;resizable=0;points=[];fontSize=10;fontColor=#080808;labelBackgroundColor=none;" vertex="1" connectable="0" parent="34">
                    <mxGeometry x="-0.3524" relative="1" as="geometry">
                        <mxPoint as="offset"/>
                    </mxGeometry>
                </mxCell>
                <mxCell id="37" style="edgeStyle=orthogonalEdgeStyle;html=1;entryX=0;entryY=0.5;entryDx=0;entryDy=0;strokeColor=#000000;fontSize=10;fontColor=#080808;" edge="1" parent="1" source="31" target="16">
                    <mxGeometry relative="1" as="geometry"/>
                </mxCell>
                <mxCell id="38" value="Não" style="edgeLabel;align=center;verticalAlign=middle;resizable=0;points=[];fontSize=10;fontColor=#080808;labelBackgroundColor=none;" vertex="1" connectable="0" parent="37">
                    <mxGeometry x="-0.3572" y="1" relative="1" as="geometry">
                        <mxPoint x="34" as="offset"/>
                    </mxGeometry>
                </mxCell>
                <mxCell id="31" value="As credenciais estão corretas?" style="strokeWidth=2;html=1;shape=mxgraph.flowchart.decision;whiteSpace=wrap;strokeColor=#000000;fontSize=10;fontColor=#080808;fillColor=#D9D9D9;" vertex="1" parent="1">
                    <mxGeometry x="222.5" y="550" width="90" height="80" as="geometry"/>
                </mxCell>
                <mxCell id="59" style="edgeStyle=orthogonalEdgeStyle;html=1;labelBackgroundColor=default;strokeColor=#000000;fontSize=10;fontColor=#080808;" edge="1" parent="1" source="33" target="58">
                    <mxGeometry relative="1" as="geometry"/>
                </mxCell>
                <mxCell id="33" value="&lt;font style=&quot;font-size: 10px;&quot;&gt;O login é efetuado com sucesso&lt;/font&gt;" style="rounded=1;whiteSpace=wrap;html=1;strokeColor=#000000;fontColor=#080808;fillColor=#D9D9D9;" vertex="1" parent="1">
                    <mxGeometry x="217.5" y="700" width="95" height="50" as="geometry"/>
                </mxCell>
                <mxCell id="43" value="" style="edgeStyle=orthogonalEdgeStyle;entryX=1;entryY=0.5;entryDx=0;entryDy=0;strokeColor=#000000;fontSize=10;fontColor=#080808;labelBackgroundColor=default;html=1;" edge="1" parent="1" source="41" target="23">
                    <mxGeometry relative="1" as="geometry">
                        <Array as="points">
                            <mxPoint x="690" y="455"/>
                        </Array>
                    </mxGeometry>
                </mxCell>
                <mxCell id="44" value="Não" style="edgeLabel;align=center;verticalAlign=middle;resizable=0;points=[];fontSize=10;fontColor=#080808;labelBackgroundColor=none;" vertex="1" connectable="0" parent="43">
                    <mxGeometry x="-0.7677" y="-1" relative="1" as="geometry">
                        <mxPoint as="offset"/>
                    </mxGeometry>
                </mxCell>
                <mxCell id="53" style="edgeStyle=orthogonalEdgeStyle;html=1;entryX=0.584;entryY=0.01;entryDx=0;entryDy=0;entryPerimeter=0;labelBackgroundColor=default;strokeColor=#000000;fontSize=10;fontColor=#080808;" edge="1" parent="1" source="41" target="51">
                    <mxGeometry relative="1" as="geometry"/>
                </mxCell>
                <mxCell id="54" value="Sim" style="edgeLabel;align=center;verticalAlign=middle;resizable=0;points=[];fontSize=10;fontColor=#080808;labelBackgroundColor=none;" vertex="1" connectable="0" parent="53">
                    <mxGeometry x="-0.3101" y="-1" relative="1" as="geometry">
                        <mxPoint as="offset"/>
                    </mxGeometry>
                </mxCell>
                <mxCell id="41" value="O usuário esqueceu a senha?" style="strokeWidth=2;html=1;shape=mxgraph.flowchart.decision;whiteSpace=wrap;strokeColor=#000000;fontSize=10;fontColor=#080808;fillColor=#D9D9D9;" vertex="1" parent="1">
                    <mxGeometry x="650" y="545" width="80" height="90" as="geometry"/>
                </mxCell>
                <mxCell id="47" style="edgeStyle=orthogonalEdgeStyle;html=1;entryX=0;entryY=0.5;entryDx=0;entryDy=0;labelBackgroundColor=default;strokeColor=#000000;fontSize=10;fontColor=#080808;" edge="1" parent="1" source="45" target="23">
                    <mxGeometry relative="1" as="geometry">
                        <Array as="points">
                            <mxPoint x="108" y="455"/>
                        </Array>
                    </mxGeometry>
                </mxCell>
                <mxCell id="45" value="&lt;font style=&quot;font-size: 10px;&quot;&gt;Cadastrar novo usuário&lt;/font&gt;" style="rounded=1;whiteSpace=wrap;html=1;strokeColor=#000000;fontColor=#080808;fillColor=#D9D9D9;" vertex="1" parent="1">
                    <mxGeometry x="60" y="305" width="95" height="50" as="geometry"/>
                </mxCell>
                <mxCell id="56" style="edgeStyle=orthogonalEdgeStyle;html=1;entryX=0.5;entryY=0;entryDx=0;entryDy=0;labelBackgroundColor=default;strokeColor=#000000;fontSize=10;fontColor=#080808;" edge="1" parent="1" source="51" target="55">
                    <mxGeometry relative="1" as="geometry"/>
                </mxCell>
                <mxCell id="51" value="&lt;font style=&quot;font-size: 10px;&quot;&gt;Solicitar recuperação de senha&lt;/font&gt;" style="rounded=1;whiteSpace=wrap;html=1;strokeColor=#000000;fontColor=#080808;fillColor=#D9D9D9;" vertex="1" parent="1">
                    <mxGeometry x="635" y="720" width="95" height="50" as="geometry"/>
                </mxCell>
                <mxCell id="64" style="edgeStyle=orthogonalEdgeStyle;html=1;entryX=0.989;entryY=0.14;entryDx=0;entryDy=0;entryPerimeter=0;labelBackgroundColor=default;strokeColor=#000000;fontSize=10;fontColor=#080808;" edge="1" parent="1" source="55" target="23">
                    <mxGeometry relative="1" as="geometry">
                        <Array as="points">
                            <mxPoint x="760" y="865"/>
                            <mxPoint x="760" y="437"/>
                        </Array>
                    </mxGeometry>
                </mxCell>
                <mxCell id="55" value="&lt;font style=&quot;font-size: 10px;&quot;&gt;Criar nova senha&lt;/font&gt;" style="rounded=1;whiteSpace=wrap;html=1;strokeColor=#000000;fontColor=#080808;fillColor=#D9D9D9;" vertex="1" parent="1">
                    <mxGeometry x="635" y="840" width="95" height="50" as="geometry"/>
                </mxCell>
                <mxCell id="61" style="edgeStyle=orthogonalEdgeStyle;html=1;labelBackgroundColor=default;strokeColor=#000000;fontSize=10;fontColor=#080808;" edge="1" parent="1" source="58">
                    <mxGeometry relative="1" as="geometry">
                        <mxPoint x="265" y="940" as="targetPoint"/>
                    </mxGeometry>
                </mxCell>
                <mxCell id="58" value="&lt;font style=&quot;font-size: 10px;&quot;&gt;Cliente é redirecionado para tela inicial do sistema&lt;/font&gt;" style="rounded=1;whiteSpace=wrap;html=1;strokeColor=#000000;fontColor=#080808;fillColor=#D9D9D9;" vertex="1" parent="1">
                    <mxGeometry x="217.5" y="820" width="95" height="60" as="geometry"/>
                </mxCell>
                <mxCell id="63" style="edgeStyle=orthogonalEdgeStyle;html=1;entryX=0;entryY=0.5;entryDx=0;entryDy=0;entryPerimeter=0;labelBackgroundColor=default;strokeColor=#000000;fontSize=10;fontColor=#080808;" edge="1" parent="1" source="60" target="62">
                    <mxGeometry relative="1" as="geometry"/>
                </mxCell>
                <mxCell id="60" value="" style="ellipse;html=1;shape=endState;fillColor=#000000;strokeColor=#000000;labelBackgroundColor=none;fontSize=10;fontColor=#080808;" vertex="1" parent="1">
                    <mxGeometry x="250" y="940" width="30" height="30" as="geometry"/>
                </mxCell>
                <mxCell id="62" value="&lt;font color=&quot;#080808&quot;&gt;Cliente acessa o sistema&lt;br&gt;&lt;/font&gt;" style="whiteSpace=wrap;html=1;shape=mxgraph.basic.document;strokeColor=#000000;fillColor=#D9D9D9;" vertex="1" parent="1">
                    <mxGeometry x="430" y="922.5" width="100" height="65" as="geometry"/>
                </mxCell>
            </root>
        </mxGraphModel>
    </diagram>
</mxfile>